<?xml version="1.0" encoding="utf-8"?>
<!-- Generator: Adobe Illustrator 19.0.0, SVG Export Plug-In . SVG Version: 6.00 Build 0)  -->
<svg version="1.1" id="Layer_1" xmlns="http://www.w3.org/2000/svg" xmlns:xlink="http://www.w3.org/1999/xlink" x="0px" y="0px"
	 viewBox="0 0 60 60" style="enable-background:new 0 0 60 60;" xml:space="preserve">
<style type="text/css">
	.st0{fill:#333332;}
</style>
<path class="st0" d="M59.2,18C54.8,26.7,47.4,32.7,40.5,39c-5.1,4.6-13.1,3.3-18-1.6c-2.3-2.3-3.1-4.4,0-6.6
	c0.9-0.6,1.6-1.6,2.3-2.4c1.1,0.2,0.9,1.2,1.1,1.7c2.3,5,7.6,6.3,11.6,2.4c4.3-4.2,8.4-8.5,12.5-12.8c3-3.2,2.9-7.2,0-10
	c-2.9-2.7-6.8-2.6-10,0.4c-0.2,0.2-0.4,0.3-0.5,0.5c-3.6,4.9-7.9,8-14.6,5.2c5.3-5.2,9.6-11.8,17-15c2.2,0,4.5,0,6.7,0
	c6,1,9.5,4.5,10.5,10.5C59.2,13.6,59.2,15.8,59.2,18z"/>
<path class="st0" d="M34.5,45c-5.2,5-9.5,11.2-16.5,14.1c-2.2,0-4.5,0-6.7,0c-6-1-9.5-4.5-10.5-10.5c0-2.2,0-4.5,0-6.7
	c4.5-8.7,12-14.8,19.2-20.9c5.4-4.6,13.8-2.9,18.4,2.6c1.7,2,2.3,3.6-0.2,5.5c-1.1,0.9-1.9,2.3-3.1,3.8c-2.7-8.2-8.1-9.6-13.5-4.4
	c-3.7,3.7-7.4,7.3-11.1,11.1C7,43.2,6.8,47.1,9.8,50.2c3,3,7,2.8,10.6-0.6c1.7-1.6,3.5-3.2,5-5c1.2-1.4,2.4-1.6,3.9-1
	c1.3,0.5,2.7,0.2,4,0.3C34,43.9,34.7,43.9,34.5,45z"/>
</svg>
