<?xml version="1.0" encoding="utf-8"?>
<!-- Generator: Adobe Illustrator 19.0.0, SVG Export Plug-In . SVG Version: 6.00 Build 0)  -->
<svg version="1.1" id="Layer_1" xmlns="http://www.w3.org/2000/svg" xmlns:xlink="http://www.w3.org/1999/xlink" x="0px" y="0px"
	 viewBox="0 0 60 60" style="enable-background:new 0 0 60 60;" xml:space="preserve">
<style type="text/css">
	.st0{fill:#333332;}
	.st1{fill:#343434;}
	.st2{fill:#353535;}
	.st3{fill:#373737;}
</style>
<g>
	<path class="st0" d="M-35-69.7c-2,4-5.4,6.8-8.6,9.6c-2.3,2.1-6.1,1.5-8.3-0.7c-1.1-1.1-1.4-2,0-3c0.4-0.3,0.7-0.7,1.1-1.1
		c0.5,0.1,0.4,0.5,0.5,0.8c1.1,2.3,3.5,2.9,5.3,1.1c2-1.9,3.9-3.9,5.8-5.9c1.4-1.5,1.3-3.3,0-4.6c-1.3-1.3-3.1-1.2-4.6,0.2
		c-0.1,0.1-0.2,0.2-0.2,0.2c-1.7,2.3-3.6,3.7-6.7,2.4c2.4-2.4,4.4-5.4,7.9-6.9c1,0,2.1,0,3.1,0c2.8,0.5,4.4,2.1,4.8,4.8
		C-35-71.8-35-70.8-35-69.7z"/>
	<path class="st0" d="M-46.4-57.3c-2.4,2.3-4.4,5.2-7.6,6.5c-1,0-2.1,0-3.1,0c-2.8-0.5-4.4-2.1-4.8-4.8c0-1,0-2.1,0-3.1
		c2.1-4,5.5-6.8,8.9-9.6c2.5-2.1,6.3-1.3,8.5,1.2c0.8,0.9,1.1,1.7-0.1,2.5c-0.5,0.4-0.9,1.1-1.4,1.8c-1.3-3.8-3.8-4.4-6.2-2
		c-1.7,1.7-3.4,3.4-5.1,5.1c-1.6,1.7-1.8,3.5-0.4,4.9c1.4,1.4,3.2,1.3,4.9-0.3c0.8-0.8,1.6-1.5,2.3-2.3c0.5-0.6,1.1-0.7,1.8-0.4
		c0.6,0.2,1.2,0.1,1.8,0.1C-46.6-57.8-46.3-57.8-46.4-57.3z"/>
</g>
<g>
	<path class="st0" d="M6.2,10.2c1.4-0.6,2.9-1.2,4.9-2.1c0.1,2.1,0.2,3.3,0.2,4.6c0,12.8,0.1,25.6-0.1,38.4c0,3,0.9,4,3.9,3.8
		c3.6-0.2,7.2-0.1,10.7-0.1c0.2,1.6,0.4,3,0.5,4.4c-6.7,0-13.4,0-20.2,0C6.2,42.8,6.2,26.5,6.2,10.2z"/>
	<path class="st0" d="M30.7,0.8c3.1,1.9,6.4,3.4,9,5.8c1.2,1.1,1.1,3.9,0.9,5.9c-0.1,0.8-2,1.9-3.1,1.9c-6.7,0.2-13.4,0.2-20.1,0
		c-1.1,0-3-1.2-3.1-1.9c-0.2-2-0.2-4.8,1-5.8c2.8-2.4,6.3-3.9,9.5-5.8C26.9,0.8,28.8,0.8,30.7,0.8z M27.6,1.3c-1.3,2-2.7,3.1-2.5,4
		c0.1,1,1.6,1.9,2.5,2.8c0.9-0.9,2.4-1.7,2.5-2.7C30.2,4.4,28.9,3.3,27.6,1.3z"/>
	<path class="st0" d="M53.8,18.1c-1.5,4.1-2.7,8.3-4.6,12.3c-0.8,1.6-2.9,2.6-4.8,4.1c-1.3-0.7-2.9-1.6-4.8-2.6
		c2.2-6.1,4.7-12,9-16.9c1.3-1.5,3-3.1,5.2-1.1C53.8,15.2,53.8,16.7,53.8,18.1z"/>
	<path class="st0" d="M33.6,59.2c1.4-5.3,5.7-4.4,9.8-4.4c1.4-6.6-2-14.5,5.4-20.1c0,6.3,0.1,12.2-0.1,18.1c-0.1,2.1-1,4.2-1.5,6.4
		C42.7,59.2,38.2,59.2,33.6,59.2z"/>
	<path class="st0" d="M28.6,59.2c1.1-3.8,2-7.8,3.5-11.5c1.9-4.7,4.4-9.2,6.8-14.1c1.8,1.1,3.2,1.9,5.5,3.2
		c-5.2,7.7-10.1,15-15,22.4C29,59.2,28.8,59.2,28.6,59.2z"/>
	<path class="st0" d="M27.3,21.2c-3,0-6,0.1-8.9-0.1c-0.6,0-1.3-0.7-1.9-1.1c0.7-0.4,1.3-1.3,2-1.3c6.1-0.1,12.2-0.1,18.2,0
		c0.7,0,1.3,0.7,1.9,1c-0.7,0.5-1.3,1.3-2,1.3C33.5,21.3,30.4,21.2,27.3,21.2z"/>
	<path class="st0" d="M27.7,24.6c3,0,6-0.1,9,0.1c0.7,0,1.3,0.7,1.9,1c-0.6,0.4-1.2,1.2-1.8,1.2c-6.2,0.1-12.5,0.1-18.7,0
		c-0.6,0-1.1-0.8-1.7-1.2c0.6-0.3,1.3-1,1.9-1C21.5,24.5,24.6,24.6,27.7,24.6z"/>
	<path class="st0" d="M37.2,31.5c-0.7,0.4-1.4,1.1-2.2,1.1c-5.6,0.1-11.2,0.1-16.8,0c-0.6,0-1.2-0.8-1.7-1.2c0.5-0.4,1-1,1.5-1
		c6.3-0.1,12.6,0,18.9,0C37,30.7,37.1,31.1,37.2,31.5z"/>
	<path class="st0" d="M34.3,37.3c-0.9,0.4-1.9,1.1-2.8,1.1c-4.3,0.1-8.6,0.1-12.9,0c-0.7,0-1.4-0.8-2.1-1.2c0.6-0.4,1.2-1.1,1.8-1.1
		c5.2-0.1,10.5-0.1,15.7-0.1C34.1,36.5,34.2,36.9,34.3,37.3z"/>
	<path class="st0" d="M31.4,43c-0.8,0.4-1.6,1.1-2.5,1.1c-3.6,0.1-7.1,0.1-10.7,0c-0.6,0-1.2-0.7-1.8-1.1c0.6-0.4,1.2-1.1,1.8-1.1
		c4.3-0.1,8.5-0.1,12.8-0.1C31.2,42.2,31.3,42.6,31.4,43z"/>
	<path class="st0" d="M28.8,48.7c-0.8,0.4-1.6,1.1-2.4,1.2c-2.6,0.2-5.3,0.1-7.9,0c-0.7,0-1.4-0.8-2.1-1.2c0.6-0.4,1.3-1,1.9-1
		c3.3-0.1,6.7,0,10,0C28.6,48,28.7,48.3,28.8,48.7z"/>
	<path class="st0" d="M43.9,16.1c0-2.7,0-4.8,0-7.8c1.8,0.6,3.2,1.1,4.6,1.7c-0.7,1.1-1.3,2.3-2.1,3.3C45.8,14.1,45,14.9,43.9,16.1z
		"/>
</g>
<g>
	<path class="st1" d="M106.1-56c-0.6,2.1-1.4,4.1-1.9,6.2c-0.9,4-1.3,8-7.5,6c-2.5-0.8-4.5,1.6-2.6,4.4c2.4,3.7,1.1,5.7-2.4,7.3
		c-1.5,0.7-3,1.6-4.3,2.5c-3.1,2.2-5.7,2.7-7.5-1.6c-0.6-1.4-1.6-2-3.2-1.7c-1.6,0.3-2.3,1.4-2.5,2.7c-0.6,4.3-3,4.6-6.4,3.3
		c-1.7-0.6-3.5-1-5.3-1.4c-3.5-0.7-5.6-2.1-3.9-6.1c0.6-1.3,0.4-2.5-0.8-3.6c-1.4-1.3-2.7-0.9-4,0c-2.5,1.7-4.6,1.9-6-1.3
		c-0.5-1.1-1.8-2.2-0.3-3.5c1.1-0.9,2.3-1.5,3.4,0.1c0.4,0.6,1.3,0.8,1.8,0.3c4.1-3.6,6.5,0.2,9.4,2.1c1.4,0.9,2.1,2.1,1.5,3.8
		c-1.2,3,0.3,4,3,4.8c2.9,0.9,3.7-0.1,4.6-2.6c1.4-3.8,9-4.6,11.3-1c1.6,2.4,2.8,2.1,4.8,0.8c1.9-1.2,3.7-1.9,2.1-4.9
		c-2-4,2.7-10.3,7-9.3c2.9,0.6,3.5-0.4,4-2.7c0.4-2.1,1.7-3.8-1.7-5c-4.5-1.5-5.3-9-1.3-11.9c2.6-1.9,1.2-3.2,0.3-4.9
		c-1-1.8-1.6-3.4-4.5-2c-4.3,2.1-10.1-2.5-9.3-7.3c0.6-3.1-1.1-3.2-3.2-3.8c-2.1-0.6-3.5-1.1-4.6,1.8c-1.7,4.6-8.9,5.6-11.7,1.5
		c-1.8-2.7-3.1-1.3-4.8-0.4c-1.8,1-3.3,1.7-2,4.5c2.1,4.3-2.5,10.2-7.2,9.6c-1-0.1-2.1-0.9-2.8,0c-1.4,1.8-2.9,1-3.9,0.1
		c-1.2-1.1,0-2.5,0.4-3.7c0.5-1.8,1.9-1.9,3.6-1.6c5.9,0.8,6.6-0.1,4.3-5.7c-0.1-0.3-0.4-0.6-0.4-0.9c0.2-5.3,5.5-4.9,8.3-7.3
		c1.5-1.3,3.5-2.8,5.7-0.6c5.5,5.5,5.5,5.5,8.1-2c0.1-0.3,0.2-0.6,0.3-0.9c1.3,0,2.7,0,4,0c2.3,1,4.8,0.9,7.2,1.2
		c3,0.3,5.7,1,6.1,4.8c0.2,1.7,1.3,2.4,3.1,2.6c6.1,0.7,12.7,9.7,11.1,15.4c-1,3.5-2.1,6.5,1,9.4C107.3-57.9,106.8-56.8,106.1-56z"
		/>
	<path class="st2" d="M108-12c-1.7-2.4-6-2.8-5.1-7.1c0.2-0.9-1.2-0.8-1.9-1.1c-3.9-1.5-5.4-5.5-3.1-8.9c0.9-1.3,1.1-1.9,0.3-3.4
		c-2.1-3.7-0.2-7.6,3.9-8.5c1.2-0.2,2-0.2,2.6-1.7c2-5.2,5-6,9.4-2.9c0.9,0.6,1.5,0.5,2-0.3c1.4-3.5,4-3,6.6-1.6
		c5.4,2.9,9.9,6.9,11.1,13.1c2.2,11.5-3.3,19.7-14.7,22.4C115.3-12,111.7-12,108-12z"/>
	<path class="st2" d="M136-58c-1,4.4-6.4,4.9-8.1,8.9c-0.5,1.2-3.4,2.1-4.5,1.1c-2.7-2.5-5-0.6-7.4,0c-3.8-1.7-4.6-6.6-8.6-8.2
		c-1.9-3.4,0.9-6.8-0.1-10.6c-1.2-4.3,9.3-11.4,13.4-9.5c1.1,0.5,1.6,0.7,2.5,0c2.2-1.8,5.1-0.5,5.7,0.9c1.6,3.7,5.6,4.9,7.1,8.3
		C136-64,136-61,136-58z"/>
	<path class="st2" d="M31-66c6.3,0,12.6,0,18.9,0c1.4,0,3.1-0.2,3.1,2.1c0,2.3-1.7,2.1-3.1,2.1C43.6-61.8,37.3-61.9,31-62
		C31-63.3,31-64.7,31-66z"/>
	<path class="st2" d="M73.6-45.8c-7.4,0.1-13.3-5.9-13.3-13.3c0.1-7.2,5.8-13,13-13.1c7.4-0.1,13.3,5.8,13.2,13.3
		C86.4-51.6,80.8-45.9,73.6-45.8z"/>
	<path class="st2" d="M46.9-50c1.8,0,3.6,0,5.4,0c1.3,0,2.2,0.5,2.2,2c0,1.4-0.7,2.2-2.1,2.2c-3.8,0-7.6,0-11.4,0
		c-1.3,0-2.1-0.5-2.2-2C38.9-49.7,40-50,41.5-50C43.3-50,45.1-50,46.9-50z"/>
	<path class="st3" d="M50.8-58c1.2,0,2.3-0.1,3.5,0c1.5,0.1,3.6-0.5,3.5,2.2c-0.1,2.3-1.8,2-3.2,2c-2.6,0.1-5.3,0-7.9,0
		c-1.3,0-2.7-0.1-2.8-2c-0.1-2.2,1.5-2.2,3-2.2C48.1-58,49.4-58,50.8-58z"/>
</g>
<image style="overflow:visible;" width="89" height="80" xlink:href="track.png"  transform="matrix(0.2328 0 0 0.2328 86 2)">
</image>
</svg>
