<?xml version="1.0" encoding="utf-8"?>
<!-- Generator: Adobe Illustrator 19.0.0, SVG Export Plug-In . SVG Version: 6.00 Build 0)  -->
<svg version="1.1" id="Layer_1" xmlns="http://www.w3.org/2000/svg" xmlns:xlink="http://www.w3.org/1999/xlink" x="0px" y="0px"
	 viewBox="0 0 60 60" style="enable-background:new 0 0 60 60;" xml:space="preserve">
<style type="text/css">
	.st0{fill:#333332;}
	.st1{fill:#343434;}
	.st2{fill:#353535;}
	.st3{fill:#373737;}
</style>
<g>
	<path class="st0" d="M-35-69.7c-2,4-5.4,6.8-8.6,9.6c-2.3,2.1-6.1,1.5-8.3-0.7c-1.1-1.1-1.4-2,0-3c0.4-0.3,0.7-0.7,1.1-1.1
		c0.5,0.1,0.4,0.5,0.5,0.8c1.1,2.3,3.5,2.9,5.3,1.1c2-1.9,3.9-3.9,5.8-5.9c1.4-1.5,1.3-3.3,0-4.6c-1.3-1.3-3.1-1.2-4.6,0.2
		c-0.1,0.1-0.2,0.2-0.2,0.2c-1.7,2.3-3.6,3.7-6.7,2.4c2.4-2.4,4.4-5.4,7.9-6.9c1,0,2.1,0,3.1,0c2.8,0.5,4.4,2.1,4.8,4.8
		C-35-71.8-35-70.8-35-69.7z"/>
	<path class="st0" d="M-46.4-57.3c-2.4,2.3-4.4,5.2-7.6,6.5c-1,0-2.1,0-3.1,0c-2.8-0.5-4.4-2.1-4.8-4.8c0-1,0-2.1,0-3.1
		c2.1-4,5.5-6.8,8.9-9.6c2.5-2.1,6.3-1.3,8.5,1.2c0.8,0.9,1.1,1.7-0.1,2.5c-0.5,0.4-0.9,1.1-1.4,1.8c-1.3-3.8-3.8-4.4-6.2-2
		c-1.7,1.7-3.4,3.4-5.1,5.1c-1.6,1.7-1.8,3.5-0.4,4.9c1.4,1.4,3.2,1.3,4.9-0.3c0.8-0.8,1.6-1.5,2.3-2.3c0.5-0.6,1.1-0.7,1.8-0.4
		c0.6,0.2,1.2,0.1,1.8,0.1C-46.6-57.8-46.3-57.8-46.4-57.3z"/>
</g>
<g>
	<path class="st0" d="M-146.1-2.6c1.4-0.6,2.9-1.2,4.9-2.1c0.1,2.1,0.2,3.3,0.2,4.6c0,12.8,0.1,25.6-0.1,38.4c0,3,0.9,4,3.9,3.8
		c3.6-0.2,7.2-0.1,10.7-0.1c0.2,1.6,0.4,3,0.5,4.4c-6.7,0-13.4,0-20.2,0C-146.1,30-146.1,13.7-146.1-2.6z"/>
	<path class="st0" d="M-121.6-12c3.1,1.9,6.4,3.4,9,5.8c1.2,1.1,1.1,3.9,0.9,5.9c-0.1,0.8-2,1.9-3.1,1.9c-6.7,0.2-13.4,0.2-20.1,0
		c-1.1,0-3-1.2-3.1-1.9c-0.2-2-0.2-4.8,1-5.8c2.8-2.4,6.3-3.9,9.5-5.8C-125.4-12-123.5-12-121.6-12z M-124.7-11.5
		c-1.3,2-2.7,3.1-2.5,4c0.1,1,1.6,1.9,2.5,2.8c0.9-0.9,2.4-1.7,2.5-2.7C-122.1-8.4-123.4-9.6-124.7-11.5z"/>
	<path class="st0" d="M-98.5,5.3c-1.5,4.1-2.7,8.3-4.6,12.3c-0.8,1.6-2.9,2.6-4.8,4.1c-1.3-0.7-2.9-1.6-4.8-2.6
		c2.2-6.1,4.7-12,9-16.9c1.3-1.5,3-3.1,5.2-1.1C-98.5,2.4-98.5,3.9-98.5,5.3z"/>
	<path class="st0" d="M-118.7,46.4c1.4-5.3,5.7-4.4,9.8-4.4c1.4-6.6-2-14.5,5.4-20.1c0,6.3,0.1,12.2-0.1,18.1
		c-0.1,2.1-1,4.2-1.5,6.4C-109.6,46.4-114.1,46.4-118.7,46.4z"/>
	<path class="st0" d="M-123.7,46.4c1.1-3.8,2-7.8,3.5-11.5c1.9-4.7,4.4-9.2,6.8-14.1c1.8,1.1,3.2,1.9,5.5,3.2
		c-5.2,7.7-10.1,15-15,22.4C-123.3,46.4-123.5,46.4-123.7,46.4z"/>
	<path class="st0" d="M-125,8.4c-3,0-6,0.1-8.9-0.1c-0.6,0-1.3-0.7-1.9-1.1c0.7-0.4,1.3-1.3,2-1.3c6.1-0.1,12.2-0.1,18.2,0
		c0.7,0,1.3,0.7,1.9,1c-0.7,0.5-1.3,1.3-2,1.3C-118.8,8.5-121.9,8.4-125,8.4z"/>
	<path class="st0" d="M-124.6,11.8c3,0,6-0.1,9,0.1c0.7,0,1.3,0.7,1.9,1c-0.6,0.4-1.2,1.2-1.8,1.2c-6.2,0.1-12.5,0.1-18.7,0
		c-0.6,0-1.1-0.8-1.7-1.2c0.6-0.3,1.3-1,1.9-1C-130.8,11.7-127.7,11.8-124.6,11.8z"/>
	<path class="st0" d="M-115.1,18.7c-0.7,0.4-1.4,1.1-2.2,1.1c-5.6,0.1-11.2,0.1-16.8,0c-0.6,0-1.2-0.8-1.7-1.2c0.5-0.4,1-1,1.5-1
		c6.3-0.1,12.6,0,18.9,0C-115.3,17.9-115.2,18.3-115.1,18.7z"/>
	<path class="st0" d="M-118,24.5c-0.9,0.4-1.9,1.1-2.8,1.1c-4.3,0.1-8.6,0.1-12.9,0c-0.7,0-1.4-0.8-2.1-1.2c0.6-0.4,1.2-1.1,1.8-1.1
		c5.2-0.1,10.5-0.1,15.7-0.1C-118.2,23.6-118.1,24.1-118,24.5z"/>
	<path class="st0" d="M-120.9,30.1c-0.8,0.4-1.6,1.1-2.5,1.1c-3.6,0.1-7.1,0.1-10.7,0c-0.6,0-1.2-0.7-1.8-1.1
		c0.6-0.4,1.2-1.1,1.8-1.1c4.3-0.1,8.5-0.1,12.8-0.1C-121.1,29.4-121,29.8-120.9,30.1z"/>
	<path class="st0" d="M-123.5,35.9c-0.8,0.4-1.6,1.1-2.4,1.2c-2.6,0.2-5.3,0.1-7.9,0c-0.7,0-1.4-0.8-2.1-1.2c0.6-0.4,1.3-1,1.9-1
		c3.3-0.1,6.7,0,10,0C-123.7,35.1-123.6,35.5-123.5,35.9z"/>
	<path class="st0" d="M-108.4,3.2c0-2.7,0-4.8,0-7.8c1.8,0.6,3.2,1.1,4.6,1.7c-0.7,1.1-1.3,2.3-2.1,3.3
		C-106.5,1.3-107.3,2-108.4,3.2z"/>
</g>
<g>
	<path class="st1" d="M42.9,27.7c-0.4,1.2-0.8,2.3-1.1,3.5c-0.5,2.3-0.8,4.5-4.3,3.4c-1.4-0.5-2.6,0.9-1.5,2.5
		c1.4,2.1,0.7,3.3-1.4,4.2c-0.9,0.4-1.7,0.9-2.5,1.4c-1.8,1.3-3.3,1.6-4.3-0.9c-0.3-0.8-0.9-1.1-1.8-1c-0.9,0.2-1.3,0.8-1.4,1.6
		C24.4,45,23,45.1,21,44.4c-1-0.4-2-0.6-3-0.8c-2-0.4-3.2-1.2-2.3-3.5c0.3-0.8,0.2-1.4-0.5-2c-0.8-0.7-1.5-0.5-2.3,0
		c-1.4,1-2.6,1.1-3.4-0.7c-0.3-0.7-1-1.3-0.2-2c0.6-0.5,1.3-0.9,1.9,0c0.3,0.4,0.7,0.4,1,0.2c2.4-2.1,3.7,0.1,5.4,1.2
		c0.8,0.5,1.2,1.2,0.8,2.2c-0.7,1.7,0.2,2.3,1.7,2.7c1.6,0.5,2.1,0,2.6-1.5c0.8-2.2,5.2-2.6,6.5-0.6c0.9,1.4,1.6,1.2,2.7,0.5
		c1.1-0.7,2.1-1.1,1.2-2.8c-1.2-2.3,1.5-5.9,4-5.3c1.6,0.3,2-0.2,2.3-1.6c0.2-1.2,0.9-2.2-1-2.8c-2.6-0.9-3-5.1-0.7-6.8
		c1.5-1.1,0.7-1.8,0.2-2.8c-0.6-1-0.9-1.9-2.5-1.1c-2.4,1.2-5.8-1.5-5.3-4.2c0.3-1.7-0.7-1.8-1.8-2.2c-1.2-0.4-2-0.6-2.6,1
		c-1,2.6-5.1,3.2-6.7,0.8c-1-1.6-1.8-0.8-2.8-0.2c-1,0.6-1.9,1-1.1,2.6c1.2,2.5-1.4,5.8-4.1,5.5c-0.6-0.1-1.2-0.5-1.6,0
		c-0.8,1-1.6,0.6-2.2,0.1c-0.7-0.6,0-1.4,0.2-2.1c0.3-1,1.1-1.1,2.1-0.9c3.4,0.5,3.8-0.1,2.5-3.3c-0.1-0.2-0.2-0.3-0.2-0.5
		c0.1-3,3.2-2.8,4.8-4.2c0.8-0.7,2-1.6,3.3-0.3c3.1,3.2,3.2,3.1,4.6-1.1c0.1-0.2,0.1-0.4,0.2-0.5c0.8,0,1.5,0,2.3,0
		c1.3,0.6,2.7,0.5,4.1,0.7c1.7,0.2,3.3,0.6,3.5,2.7c0.1,1,0.8,1.4,1.8,1.5c3.5,0.4,7.3,5.5,6.3,8.8c-0.6,2-1.2,3.7,0.6,5.4
		C43.6,26.6,43.3,27.3,42.9,27.7z"/>
	<path class="st2" d="M44,52.9c-1-1.3-3.4-1.6-2.9-4.1c0.1-0.5-0.7-0.5-1.1-0.6c-2.2-0.8-3.1-3.2-1.8-5.1c0.5-0.7,0.6-1.1,0.2-1.9
		c-1.2-2.1-0.1-4.3,2.2-4.8c0.7-0.1,1.1-0.1,1.5-1c1.2-3,2.8-3.5,5.3-1.7c0.5,0.4,0.8,0.3,1.2-0.2c0.8-2,2.3-1.7,3.7-0.9
		c3.1,1.7,5.6,3.9,6.3,7.5c1.3,6.6-1.9,11.2-8.4,12.8C48.2,52.9,46.1,52.9,44,52.9z"/>
	<path class="st2" d="M60,26.6c-0.6,2.5-3.7,2.8-4.6,5.1c-0.3,0.7-1.9,1.2-2.6,0.6c-1.6-1.4-2.8-0.3-4.2,0c-2.2-1-2.7-3.8-4.9-4.7
		c-1.1-2,0.5-3.9-0.1-6c-0.7-2.5,5.3-6.5,7.7-5.4c0.6,0.3,0.9,0.4,1.4,0c1.3-1,2.9-0.3,3.2,0.5c0.9,2.1,3.2,2.8,4.1,4.8
		C60,23.1,60,24.9,60,26.6z"/>
	<path class="st2" d="M0,22c3.6,0,7.2,0,10.8,0c0.8,0,1.8-0.1,1.8,1.2c0,1.3-1,1.2-1.8,1.2c-3.6,0-7.2-0.1-10.8-0.2
		C0,23.5,0,22.8,0,22z"/>
	<path class="st2" d="M24.3,33.5c-4.2,0-7.6-3.4-7.6-7.6c0-4.1,3.3-7.4,7.4-7.5c4.3,0,7.6,3.3,7.5,7.6
		C31.7,30.2,28.4,33.5,24.3,33.5z"/>
	<path class="st2" d="M9.1,31.2c1,0,2.1,0,3.1,0c0.8,0,1.3,0.3,1.3,1.1c0,0.8-0.4,1.2-1.2,1.2c-2.2,0-4.3,0-6.5,0
		c-0.7,0-1.2-0.3-1.3-1.2c0-1.1,0.6-1.2,1.4-1.2C7,31.2,8.1,31.2,9.1,31.2z"/>
	<path class="st3" d="M11.3,26.6c0.7,0,1.3,0,2,0c0.9,0.1,2-0.3,2,1.2c0,1.3-1,1.1-1.9,1.1c-1.5,0-3,0-4.5,0c-0.8,0-1.6,0-1.6-1.1
		c0-1.3,0.8-1.3,1.7-1.3C9.8,26.6,10.5,26.6,11.3,26.6z"/>
</g>
<image style="overflow:visible;" width="89" height="80" xlink:href="track.png"  transform="matrix(0.2328 0 0 0.2328 86 2)">
</image>
</svg>
